<svg version="1.1" id="Layer_1" xmlns="http://www.w3.org/2000/svg" xmlns:xlink="http://www.w3.org/1999/xlink" x="0px" y="0px" viewBox="0 0 266 150" style="enable-background:new 0 0 266 150;" xml:space="preserve"><style type="text/css"> .st0{fill:#004280 !important;} </style><g id="Logotype" transform="translate(-53.877 -41.186)"><g id="Group_6" transform="translate(64.957 159.5)"><g id="Group_5"><path id="Path_1" class="st0" d="M-0.16,14.59V3.16h2.3v4.5h4.52v-4.5h2.31v11.43H6.66v-5H2.14v5H-0.16z"></path><path id="Path_2" class="st0" d="M21.67,14.59h-2.51l-1-2.6h-4.57l-0.94,2.6H10.2l4.45-11.43h2.44L21.67,14.59z M17.42,10.07 l-1.58-4.24l-1.54,4.24H17.42z"></path><path id="Path_3" class="st0" d="M22.93,3.16h2.31v9.52h4.48V3.16h2.31v9.51h0.95v4.41h-1.92v-2.5h-8.13V3.16z"></path><path id="Path_4" class="st0" d="M34.49,14.59V3.16h2.31v11.43H34.49z"></path><path id="Path_5" class="st0" d="M38.53,8.95c-0.03-1,0.15-2,0.52-2.93c0.26-0.58,0.62-1.11,1.07-1.57 c0.42-0.44,0.92-0.79,1.48-1.03c0.78-0.31,1.62-0.47,2.46-0.45c1.51-0.07,2.98,0.5,4.04,1.57c2.02,2.54,2.02,6.14,0.01,8.69 c-1.06,1.07-2.52,1.63-4.02,1.56c-1.51,0.07-2.98-0.49-4.06-1.56C38.98,12.06,38.44,10.52,38.53,8.95z M40.91,8.87 c-0.08,1.06,0.25,2.11,0.9,2.94c1.15,1.26,3.1,1.34,4.36,0.19c0.06-0.06,0.13-0.12,0.18-0.18c0.65-0.85,0.97-1.91,0.88-2.98 c0.08-1.05-0.23-2.09-0.86-2.93c-1.23-1.26-3.25-1.29-4.52-0.06c-0.03,0.02-0.05,0.05-0.07,0.07 C41.14,6.76,40.83,7.81,40.91,8.87L40.91,8.87z"></path><path id="Path_6" class="st0" d="M51.43,14.59V3.16h2.31v4.5h4.52v-4.5h2.31v11.43h-2.31v-5h-4.52v5H51.43z"></path><path id="Path_7" class="st0" d="M73.26,14.59h-2.51l-1-2.6h-4.57l-0.94,2.6H61.8l4.45-11.43h2.44L73.26,14.59z M69.01,10.07 l-1.57-4.24l-1.54,4.24H69.01z"></path><path id="Path_8" class="st0" d="M75.5,3.16h8.01v11.43H81.2v-9.5h-3.44v4.88c0.02,0.98-0.02,1.96-0.14,2.93 c-0.06,0.5-0.31,0.96-0.68,1.3c-0.49,0.35-1.1,0.51-1.7,0.46c-0.27,0-0.76-0.03-1.47-0.08V12.8l0.51,0.01 c0.34,0.03,0.68-0.03,0.98-0.2c0.17-0.13,0.25-0.45,0.25-0.96L75.5,9.69V3.16z"></path><path id="Path_9" class="st0" d="M85.94,3.16h2.31v4.57h3.09c1.15-0.11,2.29,0.26,3.16,1.02c0.64,0.65,0.99,1.53,0.98,2.45 c0.02,0.71-0.19,1.41-0.59,1.99c-0.33,0.49-0.8,0.88-1.35,1.11c-0.71,0.22-1.46,0.32-2.2,0.29h-5.4L85.94,3.16z M88.25,12.67 h2.25c0.5,0.02,1-0.01,1.5-0.1c0.29-0.08,0.56-0.25,0.75-0.48c0.22-0.25,0.34-0.58,0.33-0.92c0.03-0.46-0.18-0.9-0.57-1.15 c-0.6-0.29-1.27-0.42-1.93-0.37h-2.35L88.25,12.67z"></path><path id="Path_10" class="st0" d="M97.38,14.59V3.16h2.31v4.5h4.52v-4.5h2.31v11.43h-2.31v-5h-4.52v5H97.38z"></path><path id="Path_11" class="st0" d="M108.94,3.16h2.16v7.62l4.63-7.61h2.3V14.6h-2.16V7.13l-4.63,7.46h-2.31L108.94,3.16 L108.94,3.16z"></path><path id="Path_12" class="st0" d="M120.41,3.16h2.16v7.61l4.63-7.61h2.3v11.43h-2.16V7.13l-4.63,7.46h-2.31L120.41,3.16z M126.34,0.31h1.07c-0.03,0.63-0.29,1.22-0.74,1.67c-0.98,0.81-2.4,0.81-3.38,0c-0.45-0.44-0.72-1.04-0.74-1.67h1.07 c0.01,0.32,0.15,0.62,0.39,0.84c0.59,0.38,1.36,0.38,1.95,0C126.19,0.94,126.33,0.63,126.34,0.31z"></path><path id="Path_13" class="st0" d="M135.14,3.16h2.58l2.67,5.93l2.28-5.93h2.41l-3.86,8.69c-0.32,0.78-0.75,1.5-1.29,2.15 c-0.43,0.49-1.05,0.76-1.69,0.74c-0.54,0.01-1.07-0.03-1.6-0.13v-1.72c0.33,0.02,0.62,0.03,0.89,0.03 c0.41,0.04,0.81-0.07,1.15-0.29c0.32-0.36,0.55-0.79,0.67-1.26L135.14,3.16z"></path><path id="Path_14" class="st0" d="M146.24,14.59V3.16h2.31v4.5h4.52v-4.5h2.31v11.43h-2.31v-5h-4.52v5H146.24z"></path><path id="Path_15" class="st0" d="M157.7,14.59V3.16h2.31v11.43H157.7z"></path><path id="Path_16" class="st0" d="M162.21,3.16h4.57c0.68-0.01,1.35,0.02,2.02,0.11c0.43,0.07,0.83,0.23,1.19,0.47 c0.36,0.25,0.66,0.58,0.88,0.96c0.24,0.41,0.36,0.87,0.35,1.34c0,1.07-0.63,2.04-1.61,2.48c0.63,0.16,1.2,0.53,1.61,1.04 c0.38,0.49,0.57,1.1,0.56,1.72c0,0.53-0.13,1.05-0.36,1.52c-0.22,0.47-0.57,0.88-0.99,1.18c-0.46,0.31-0.99,0.5-1.55,0.54 c-0.38,0.04-1.31,0.07-2.78,0.08h-3.89L162.21,3.16z M164.52,5.06V7.7h1.51c0.9,0,1.46-0.01,1.68-0.04 c0.35-0.03,0.68-0.17,0.93-0.41c0.23-0.24,0.35-0.56,0.34-0.89c0.01-0.31-0.09-0.62-0.29-0.86c-0.23-0.24-0.54-0.38-0.87-0.4 c-0.23-0.03-0.89-0.04-1.97-0.04H164.52z M164.52,9.61v3.06h2.14c0.53,0.02,1.06-0.01,1.58-0.07c0.32-0.05,0.62-0.21,0.84-0.46 c0.23-0.27,0.34-0.62,0.32-0.97c0.01-0.31-0.08-0.62-0.25-0.87c-0.18-0.25-0.43-0.43-0.72-0.52c-0.67-0.14-1.36-0.2-2.05-0.16 h-1.86V9.61z"></path><path id="Path_17" class="st0" d="M173.74,14.59V3.16h8.48v1.93h-6.17v2.53h5.74v1.93h-5.74v3.11h6.39v1.93H173.74z"></path><path id="Path_18" class="st0" d="M184.39,14.59V3.16h3.7c0.92-0.04,1.84,0.02,2.74,0.17c0.66,0.17,1.24,0.57,1.65,1.12 c0.46,0.65,0.7,1.43,0.66,2.23c0.02,0.61-0.11,1.22-0.38,1.77c-0.23,0.45-0.56,0.83-0.97,1.13c-0.36,0.26-0.77,0.44-1.2,0.54 c-0.79,0.13-1.59,0.18-2.39,0.16h-1.51v4.31H184.39z M186.7,5.09v3.24h1.26c0.61,0.03,1.23-0.03,1.82-0.18 c0.29-0.11,0.54-0.3,0.72-0.56c0.18-0.26,0.27-0.57,0.26-0.89c0.01-0.38-0.12-0.75-0.37-1.03c-0.24-0.27-0.57-0.45-0.93-0.51 c-0.55-0.07-1.11-0.09-1.66-0.08h-1.1V5.09z"></path><path id="Path_19" class="st0" d="M201.96,10.39l2.24,0.71c-0.24,1.09-0.85,2.07-1.71,2.78c-2.13,1.42-4.96,1.15-6.78-0.65 c-1.03-1.17-1.55-2.7-1.47-4.25c-0.1-1.61,0.43-3.2,1.47-4.43c1-1.06,2.42-1.64,3.88-1.58c1.26-0.05,2.48,0.39,3.41,1.24 c0.57,0.58,0.98,1.31,1.17,2.11l-2.29,0.55c-0.22-1.15-1.24-1.96-2.41-1.92c-0.79-0.03-1.55,0.31-2.06,0.91 c-0.6,0.86-0.88,1.91-0.79,2.96c-0.1,1.09,0.18,2.18,0.78,3.09c0.5,0.6,1.25,0.94,2.03,0.92c0.58,0.01,1.15-0.2,1.58-0.58 C201.51,11.73,201.84,11.09,201.96,10.39z"></path><path id="Path_20" class="st0" d="M206.21,3.16h2.16v7.62L213,3.17h2.3V14.6h-2.16V7.13l-4.63,7.46h-2.31L206.21,3.16z"></path><path id="Path_21" class="st0" d="M220.23,14.59v-9.5h-3.39V3.16h9.08v1.93h-3.38v9.5H220.23z"></path><path id="Path_22" class="st0" d="M227.42,14.59V3.16h8.48v1.93h-6.17v2.53h5.74v1.93h-5.74v3.11h6.39v1.93H227.42z"></path><path id="Path_23" class="st0" d="M240.64,14.59v-9.5h-3.39V3.16h9.08v1.93h-3.38v9.5H240.64z"></path><path id="Path_24" class="st0" d="M4.16,24l-2.03,3.52l2.03,3.6H2.44l-2.46-3.6L2.44,24H4.16z M7.22,24L5.2,27.52l2.02,3.6H5.49 l-2.46-3.6L5.49,24H7.22z"></path><path id="Path_25" class="st0" d="M9.08,20.23h2.31v2.73c-0.02,0.59,0.01,1.18,0.1,1.76c0.09,0.32,0.3,0.59,0.58,0.75 c0.43,0.24,0.93,0.35,1.42,0.32c0.44,0.01,0.89-0.05,1.32-0.16c0.36-0.09,0.7-0.25,1-0.47v-4.93h2.31v11.43H15.8v-4.6 c-0.44,0.2-0.91,0.36-1.38,0.47c-0.44,0.1-0.88,0.16-1.33,0.16c-1.01,0.04-2.01-0.25-2.86-0.81c-0.83-0.68-1.26-1.73-1.15-2.8 C9.08,24.08,9.08,20.23,9.08,20.23z"></path><path id="Path_26" class="st0" d="M20.49,31.67V20.23h8.48v1.93H22.8v2.53h5.74v1.93H22.8v3.11h6.39v1.93L20.49,31.67z"></path><path id="Path_27" class="st0" d="M31.14,31.67V20.23h3.7c0.92-0.04,1.84,0.02,2.74,0.17c0.66,0.17,1.24,0.57,1.65,1.12 c0.46,0.65,0.7,1.43,0.66,2.23c0.02,0.61-0.11,1.22-0.38,1.77c-0.23,0.45-0.56,0.83-0.97,1.13c-0.36,0.26-0.77,0.44-1.2,0.54 c-0.79,0.13-1.59,0.18-2.39,0.16h-1.51v4.31L31.14,31.67z M33.45,22.17v3.24h1.26c0.61,0.03,1.23-0.03,1.82-0.18 c0.29-0.11,0.54-0.3,0.72-0.56s0.27-0.57,0.26-0.89c0.01-0.38-0.12-0.75-0.37-1.03c-0.24-0.27-0.57-0.45-0.93-0.51 c-0.55-0.07-1.11-0.09-1.66-0.08h-1.1V22.17z"></path><path id="Path_28" class="st0" d="M41.8,31.67V20.23h2.31v4.5h4.52v-4.5h2.31v11.43h-2.31v-5h-4.52v5H41.8V31.67z"></path><path id="Path_29" class="st0" d="M53.26,31.67V20.23h2.31v11.43h-2.31V31.67z"></path><path id="Path_30" class="st0" d="M57.88,20.23h7.74v1.92h-5.44v9.51h-2.31L57.88,20.23L57.88,20.23z"></path><path id="Path_31" class="st0" d="M66.75,31.67V20.23h2.31v11.43h-2.31V31.67z"></path><path id="Path_32" class="st0" d="M71.27,20.23h4.57c0.68-0.01,1.35,0.02,2.02,0.11c0.43,0.07,0.83,0.23,1.19,0.47 c0.36,0.25,0.66,0.58,0.88,0.96c0.24,0.41,0.36,0.87,0.35,1.34c0,1.07-0.63,2.04-1.61,2.48c0.63,0.16,1.2,0.53,1.61,1.04 c0.38,0.49,0.57,1.1,0.56,1.72c0,0.53-0.13,1.05-0.36,1.52c-0.22,0.47-0.57,0.88-0.99,1.18c-0.46,0.31-0.99,0.5-1.55,0.54 c-0.38,0.04-1.31,0.07-2.78,0.08h-3.89C71.27,31.67,71.27,20.23,71.27,20.23z M73.57,22.13v2.64h1.51c0.9,0,1.46-0.01,1.68-0.04 c0.35-0.03,0.68-0.17,0.93-0.41c0.23-0.24,0.36-0.56,0.34-0.89c0.01-0.31-0.09-0.62-0.29-0.86c-0.23-0.24-0.54-0.38-0.87-0.4 c-0.23-0.03-0.89-0.04-1.97-0.04C74.9,22.13,73.57,22.13,73.57,22.13z M73.57,26.68v3.06h2.14c0.53,0.02,1.06-0.01,1.58-0.07 c0.32-0.05,0.62-0.21,0.84-0.46c0.23-0.27,0.34-0.62,0.32-0.97c0.01-0.31-0.08-0.61-0.25-0.87c-0.18-0.25-0.43-0.43-0.72-0.52 c-0.67-0.14-1.36-0.2-2.05-0.16h-1.86V26.68z"></path><path id="Path_33" class="st0" d="M89.5,27.46l2.24,0.71c-0.25,1.09-0.85,2.07-1.71,2.78c-2.13,1.42-4.96,1.15-6.78-0.65 c-1.03-1.17-1.55-2.7-1.47-4.25c-0.1-1.61,0.43-3.2,1.47-4.43c1-1.06,2.42-1.64,3.88-1.58c1.26-0.05,2.48,0.39,3.41,1.24 c0.57,0.58,0.98,1.31,1.17,2.11l-2.29,0.55c-0.22-1.15-1.24-1.96-2.41-1.92c-0.79-0.03-1.55,0.31-2.06,0.91 c-0.6,0.86-0.88,1.91-0.79,2.96c-0.1,1.09,0.18,2.18,0.78,3.09c0.5,0.6,1.25,0.94,2.03,0.92c0.58,0.01,1.15-0.2,1.58-0.58 C89.05,28.8,89.38,28.16,89.5,27.46z"></path><path id="Path_34" class="st0" d="M93.77,20.23h2.31v4.57h3.09c1.15-0.11,2.29,0.26,3.16,1.02c0.64,0.65,0.99,1.53,0.98,2.45 c0.02,0.71-0.19,1.41-0.59,1.99c-0.33,0.5-0.8,0.88-1.35,1.11c-0.71,0.22-1.45,0.32-2.2,0.29h-5.4L93.77,20.23z M96.08,29.75 h2.25c0.51,0.02,1.01-0.02,1.51-0.11c0.29-0.08,0.56-0.25,0.75-0.48c0.22-0.25,0.34-0.58,0.33-0.92c0.03-0.46-0.18-0.9-0.57-1.15 c-0.6-0.29-1.27-0.42-1.93-0.37h-2.35L96.08,29.75z"></path><path id="Path_35" class="st0" d="M105.24,20.23h2.31v4.87c0.39,0,0.76-0.14,1.05-0.4c0.35-0.56,0.63-1.15,0.84-1.78 c0.25-0.89,0.75-1.69,1.44-2.31c0.72-0.35,1.52-0.51,2.32-0.45c0.05,0,0.16,0,0.33-0.01v1.71l-0.33-0.01 c-0.35-0.02-0.71,0.04-1.04,0.18c-0.22,0.12-0.41,0.31-0.53,0.53c-0.23,0.48-0.43,0.97-0.6,1.47c-0.12,0.35-0.27,0.68-0.46,0.99 c-0.22,0.32-0.52,0.57-0.87,0.75c0.51,0.14,0.96,0.45,1.27,0.88c0.42,0.59,0.79,1.22,1.1,1.87l1.56,3.14h-2.71l-1.36-2.96 c-0.02-0.04-0.07-0.12-0.13-0.24c-0.03-0.04-0.12-0.22-0.29-0.54c-0.17-0.39-0.42-0.75-0.73-1.05c-0.26-0.16-0.56-0.24-0.87-0.22 v5.01h-2.31L105.24,20.23z"></path><path id="Path_36" class="st0" d="M125.26,31.67h-2.51l-1-2.6h-4.56l-0.94,2.6h-2.46l4.45-11.43h2.44L125.26,31.67z M121.01,27.14l-1.58-4.24l-1.55,4.24H121.01z"></path><path id="Path_37" class="st0" d="M130.95,20.23h9.09v11.43h-2.31v-9.52h-4.48v9.51h-2.31L130.95,20.23L130.95,20.23z"></path><path id="Path_38" class="st0" d="M141.93,26.02c-0.03-1,0.15-2,0.52-2.93c0.26-0.58,0.62-1.11,1.07-1.57 c0.42-0.44,0.92-0.79,1.48-1.03c0.78-0.31,1.62-0.47,2.46-0.45c1.51-0.07,2.98,0.5,4.04,1.57c2.02,2.54,2.03,6.14,0.01,8.69 c-1.06,1.07-2.52,1.63-4.02,1.56c-1.51,0.07-2.98-0.49-4.06-1.56C142.38,29.13,141.84,27.59,141.93,26.02z M144.31,25.94 c-0.07,1.06,0.25,2.11,0.9,2.94c1.15,1.26,3.1,1.34,4.36,0.19c0.06-0.06,0.13-0.12,0.19-0.19c0.65-0.85,0.97-1.91,0.89-2.98 c0.08-1.05-0.23-2.09-0.86-2.93c-1.23-1.26-3.25-1.29-4.52-0.06c-0.02,0.02-0.05,0.05-0.07,0.07 C144.54,23.83,144.23,24.88,144.31,25.94L144.31,25.94z"></path><path id="Path_39" class="st0" d="M155.24,20.23h8.01v11.43h-2.31v-9.5h-3.44v4.88c0.02,0.98-0.02,1.96-0.14,2.93 c-0.06,0.5-0.31,0.96-0.68,1.3c-0.49,0.35-1.1,0.51-1.7,0.46c-0.27,0-0.76-0.03-1.47-0.08v-1.79l0.52,0.01 c0.34,0.03,0.68-0.03,0.98-0.2c0.17-0.13,0.25-0.45,0.25-0.96l-0.01-1.96L155.24,20.23z"></path><path id="Path_40" class="st0" d="M165.56,31.67V20.23h2.31v11.43h-2.31V31.67z"></path><path id="Path_41" class="st0" d="M172.64,31.67v-9.5h-3.39v-1.93h9.08v1.93h-3.38v9.5H172.64z"></path><path id="Path_42" class="st0" d="M179.82,31.67V20.23h8.48v1.93h-6.17v2.53h5.74v1.93h-5.74v3.11h6.39v1.93L179.82,31.67z"></path><path id="Path_43" class="st0" d="M189.31,31.67l3.91-5.97l-3.54-5.47h2.7l2.29,3.67l2.25-3.67h2.67l-3.56,5.55l3.91,5.88h-2.79 l-2.53-3.95l-2.54,3.95L189.31,31.67z"></path><path id="Path_44" class="st0" d="M201.14,31.67V20.23h2.31v4.5h4.52v-4.5h2.31v11.43h-2.31v-5h-4.52v5h-2.31V31.67z"></path><path id="Path_45" class="st0" d="M212.59,31.67V20.23h2.31v11.43h-2.31V31.67z"></path><path id="Path_46" class="st0" d="M217.14,20.23h2.31v4.87c0.39,0,0.76-0.14,1.05-0.4c0.35-0.56,0.64-1.15,0.84-1.78 c0.25-0.89,0.75-1.69,1.44-2.31c0.72-0.35,1.52-0.51,2.32-0.45c0.05,0,0.16,0,0.33-0.01v1.71l-0.33-0.01 c-0.35-0.02-0.71,0.04-1.04,0.18c-0.22,0.12-0.41,0.31-0.53,0.53c-0.23,0.48-0.43,0.97-0.6,1.47c-0.12,0.35-0.27,0.68-0.46,0.99 c-0.22,0.32-0.52,0.57-0.87,0.75c0.51,0.14,0.96,0.45,1.27,0.88c0.42,0.59,0.79,1.22,1.1,1.87l1.56,3.14h-2.71l-1.36-2.95 c-0.02-0.04-0.06-0.12-0.13-0.24c-0.03-0.04-0.12-0.22-0.29-0.54c-0.17-0.39-0.42-0.75-0.73-1.05c-0.26-0.16-0.56-0.24-0.87-0.22 v5.01h-2.31L217.14,20.23z"></path><path id="Path_47" class="st0" d="M237.16,31.67h-2.51l-1-2.6h-4.57l-0.94,2.6h-2.45l4.45-11.43h2.44L237.16,31.67z M232.91,27.14l-1.58-4.24l-1.54,4.24H232.91z"></path><path id="Path_48" class="st0" d="M238.05,31.12l2.03-3.52l-2.03-3.6h1.72l2.46,3.6l-2.46,3.52H238.05z M241.1,31.12l2.03-3.52 L241.1,24h1.72l2.46,3.6l-2.46,3.52H241.1z"></path></g></g><path id="Path_49" class="st0" d="M74.9,131.74h-2.21V97.37h69.92v7.75h18.73V41.5h24.78v3.55h38.27v39.21h-2.21v-37h-38.27v-3.55 h-20.37v63.63H140.4v-7.75H74.9V131.74z"></path><path id="Path_50" class="st0" d="M180.29,50.58c-0.44,0.19-0.85,0.43-1.25,0.7c-1.2,0.84-2.09,2.05-2.54,3.44 c-0.36,1.12-0.41,1.58-0.41,4.5v1.39l-0.01,0.98h0.02l0.2,0.03c0.04,0.01,0.08,0.02,0.12,0.03c0.02,0.01,0.04,0.01,0.05,0.02l0,0 c0.04,0.02,0.07,0.04,0.11,0.07c0.01,0.01,0.02,0.01,0.03,0.02l0.01,0.01c0.05,0.05,0.08,0.1,0.12,0.15l0,0 c0.05,0.1,0.07,0.22,0.05,0.33c0,0.01,0,0.02-0.01,0.03c-0.01,0.03-0.01,0.06-0.03,0.09c-0.01,0.02-0.02,0.04-0.04,0.06 c-0.02,0.04-0.05,0.08-0.09,0.11c-0.05,0.04-0.1,0.08-0.15,0.11l-0.02,0.01c-0.03,0.01-0.06,0.02-0.08,0.03 c-0.06,0.02-0.12,0.03-0.18,0.04l-0.12,0.02c-0.02,0-0.04,0-0.06-0.01c-0.04-0.02-0.07-0.04-0.09-0.07l-0.19-0.32 c-0.14-0.24-0.26-0.48-0.38-0.72c-0.06-0.13-0.12-0.25-0.17-0.38l-0.01-0.03c-0.06-0.14-0.12-0.27-0.17-0.41 c-0.06-0.16-0.12-0.31-0.17-0.47c-0.07-0.2-0.13-0.39-0.18-0.59c-0.01-0.04-0.02-0.08-0.03-0.12c-0.07-0.26-0.12-0.52-0.16-0.78 c-0.02-0.26-0.03-0.63-0.04-1.32c-0.01-0.51,0-1.06,0.01-1.61c0.01-0.23,0.02-0.45,0.03-0.65c0.03-0.47,0.07-1.12,0.09-1.45 c0.08-1.87-0.27-3.73-1.01-5.45c-0.07-0.11-0.16-0.2-0.2-0.2s-0.13,0.09-0.2,0.2c-0.74,1.72-1.08,3.58-1.01,5.45 c0.02,0.33,0.06,0.98,0.09,1.45c0.01,0.2,0.02,0.42,0.03,0.65c0.01,0.55,0.02,1.1,0.01,1.61c-0.01,0.69-0.02,1.06-0.04,1.32 c-0.04,0.26-0.1,0.52-0.16,0.78c-0.01,0.04-0.02,0.08-0.03,0.12c-0.05,0.2-0.12,0.39-0.18,0.59c-0.05,0.16-0.11,0.31-0.17,0.47 c-0.05,0.14-0.11,0.27-0.17,0.41l-0.01,0.03c-0.06,0.12-0.11,0.25-0.17,0.38c-0.12,0.24-0.24,0.48-0.38,0.72l-0.19,0.32 c-0.02,0.03-0.05,0.06-0.09,0.07c-0.02,0-0.04,0.01-0.06,0.01l-0.12-0.02c-0.06-0.01-0.12-0.02-0.18-0.04 c-0.03-0.01-0.06-0.02-0.08-0.03l-0.02-0.01c-0.06-0.03-0.11-0.07-0.15-0.11c-0.03-0.03-0.06-0.07-0.09-0.11 c-0.01-0.02-0.02-0.04-0.04-0.06c-0.01-0.03-0.02-0.06-0.03-0.09c0-0.01,0-0.02-0.01-0.03c-0.02-0.11,0-0.23,0.05-0.33l0,0 c0.03-0.06,0.07-0.11,0.12-0.15l0.01-0.01c0.01-0.01,0.02-0.02,0.03-0.02c0.03-0.03,0.07-0.05,0.11-0.07l0,0 c0.02-0.01,0.03-0.01,0.05-0.02c0.04-0.01,0.08-0.02,0.12-0.03l0.2-0.03h0.02l-0.01-0.98v-1.39c0-2.92-0.04-3.39-0.41-4.5 c-0.45-1.39-1.34-2.6-2.54-3.44c-0.39-0.27-0.81-0.51-1.25-0.7l-0.13-0.05v16.81h4.18l0.17,0.32c0.38,0.71,0.84,1.37,1.37,1.97 c0.19,0.25,0.36,0.52,0.52,0.79c0.01,0.02,0.02,0.04,0.03,0.06c0.04,0.07,0.07,0.13,0.1,0.2c0.14,0.27,0.25,0.55,0.33,0.84 c0.04,0.17,0.09,0.33,0.17,0.49c0.13,0.11,0.32,0.11,0.44,0c0.08-0.15,0.14-0.32,0.17-0.49c0.08-0.29,0.19-0.57,0.33-0.84 c0.03-0.07,0.06-0.13,0.1-0.2c0.01-0.02,0.02-0.04,0.03-0.06c0.16-0.27,0.33-0.53,0.52-0.79c0.53-0.6,0.99-1.27,1.37-1.97 l0.17-0.32h4.18V50.53L180.29,50.58z M170.16,64.93v1.08h-2.38v-1.67l0.01-4.45c0-0.9,0-1.68,0.01-2.37 c0.01-1.45,0.02-2.62,0.03-3.26c0.01-0.25,0.01-0.41,0.02-0.49c0-0.01,0-0.01,0-0.02c0.01-0.01,0.02-0.03,0.03-0.04 c0.01-0.01,0.03-0.01,0.05,0l0.01,0.01c0.03,0.02,0.06,0.05,0.08,0.07c0.03,0.05,0.07,0.12,0.12,0.18 c0.12,0.18,0.23,0.36,0.33,0.55c0.02,0.04,0.04,0.08,0.06,0.12c0.35,0.77,0.57,1.58,0.64,2.42c0.05,1.12,0.04,2.25-0.03,3.38 c-0.02,0.04-0.04,0.07-0.07,0.1l-0.03,0.03c-0.04,0.04-0.09,0.07-0.13,0.1c-0.31,0.22-0.58,0.51-0.77,0.84 c-0.01,0.02-0.02,0.04-0.04,0.06l-0.07,0.09c-0.02,0.02-0.04,0.04-0.06,0.04c-0.08,0-0.09,0.06-0.09,0.69 c0,0.57,0.01,0.69,0.07,0.69c0.04,0,0.13,0.09,0.21,0.2c0.45,0.6,1.13,1,1.87,1.1l0.13,0.03L170.16,64.93z M171.73,64.72l0.15,0.03 c0.04,0.01,0.08,0.02,0.11,0.04l0.04,0.02c0.12,0.07,0.23,0.16,0.31,0.28l0,0c0.02,0.04,0.05,0.07,0.07,0.11v0.01 c0.01,0.02,0.02,0.04,0.03,0.06c0.05,0.11,0.09,0.22,0.11,0.34c0.01,0.05,0.02,0.1,0.02,0.15l0.02,0.17 c-0.02,0.05-0.05,0.08-0.1,0.1h-0.05h-0.72L171.73,64.72z M172.68,67.82c0.01,0.15,0,0.31-0.04,0.46l-0.11-0.06 c-0.12-0.07-0.22-0.15-0.31-0.25l-0.06-0.07c-0.01-0.01-0.03-0.03-0.04-0.05c-0.03-0.04-0.06-0.07-0.09-0.11 c-0.04-0.05-0.07-0.11-0.1-0.16c-0.03-0.06-0.06-0.11-0.07-0.15c0-0.01-0.01-0.03,0-0.03c0.06-0.04,0.13-0.06,0.2-0.05h0.64 L172.68,67.82z M173.44,63.82c-0.07,0.05-0.1,0.09-0.12,0.09s-0.05-0.04-0.12-0.09c-0.15-0.16-0.3-0.3-0.47-0.43 c-0.13-0.09-0.25-0.21-0.36-0.33c-0.01-0.04-0.02-0.07-0.02-0.11v-0.02c0-0.03,0.01-0.07,0.02-0.1c0.01-0.03,0.02-0.07,0.03-0.11 c0.03-0.08,0.07-0.19,0.12-0.32c0.08-0.2,0.2-0.47,0.37-0.85l0.36-0.8c0.02-0.02,0.04-0.04,0.06-0.05 c0.02,0.02,0.04,0.03,0.06,0.05l0.36,0.8c0.17,0.37,0.29,0.64,0.37,0.85c0.05,0.12,0.09,0.23,0.12,0.32 c0.01,0.04,0.02,0.07,0.03,0.11c0.01,0.03,0.01,0.07,0.02,0.1v0.02c0,0.04,0,0.08-0.02,0.11c-0.1,0.13-0.22,0.24-0.36,0.33 C173.74,63.52,173.58,63.67,173.44,63.82L173.44,63.82z M174.79,67.43c-0.02,0.04-0.04,0.09-0.07,0.15 c-0.03,0.06-0.07,0.11-0.11,0.16c-0.03,0.04-0.06,0.07-0.09,0.11c-0.01,0.02-0.03,0.03-0.04,0.05l-0.06,0.07 c-0.09,0.1-0.2,0.18-0.31,0.25L174,68.28c-0.03-0.15-0.04-0.3-0.04-0.46v-0.47h0.64c0.07-0.01,0.14,0.01,0.2,0.05 C174.8,67.41,174.79,67.42,174.79,67.43L174.79,67.43z M174.91,66.01h-0.72h-0.05c-0.05-0.02-0.08-0.05-0.1-0.1l0.02-0.17 c0.01-0.05,0.01-0.1,0.02-0.15c0.03-0.12,0.07-0.23,0.11-0.34c0.01-0.02,0.02-0.04,0.03-0.06v-0.01c0.02-0.04,0.04-0.08,0.07-0.11 l0,0c0.08-0.12,0.19-0.21,0.31-0.28l0.04-0.02c0.04-0.02,0.08-0.03,0.11-0.04l0.15-0.03L174.91,66.01z M178.21,66.01h-1.74V64.4 l0.13-0.03c0.75-0.1,1.42-0.5,1.87-1.1c0.08-0.11,0.17-0.2,0.21-0.2c0.06,0,0.07-0.12,0.07-0.69c0-0.63-0.01-0.69-0.09-0.69 c-0.02,0-0.04-0.02-0.06-0.04l-0.07-0.09c-0.01-0.02-0.03-0.04-0.04-0.06c-0.19-0.33-0.45-0.62-0.77-0.84 c-0.05-0.03-0.09-0.06-0.13-0.1l-0.03-0.03c-0.03-0.03-0.06-0.06-0.07-0.1c-0.07-1.12-0.08-2.25-0.03-3.38 c0.07-0.84,0.29-1.66,0.64-2.42c0.02-0.04,0.04-0.08,0.06-0.12c0.1-0.19,0.21-0.38,0.33-0.55c0.05-0.06,0.08-0.13,0.12-0.18 c0.02-0.03,0.05-0.05,0.08-0.07l0.01-0.01c0.01-0.01,0.03-0.01,0.05,0c0.01,0.01,0.02,0.03,0.03,0.04c0,0.01,0,0.01,0,0.02 c0.01,0.08,0.01,0.24,0.02,0.49c0.01,0.64,0.02,1.82,0.03,3.26c0,0.69,0,1.47,0.01,2.37l0.02,4.45V66L178.21,66.01z"></path><path id="Path_51" class="st0" d="M217.97,58.73h-33.54v-8.02h33.54V58.73z M186.64,56.52h29.12v-3.61h-29.12V56.52z"></path><path id="Path_52" class="st0" d="M217.97,88.12h-33.54V80.1h33.54V88.12z M186.64,85.92h29.12v-3.61h-29.12V85.92z"></path><path id="Path_53" class="st0" d="M217.97,78.43h-33.54v-8.02h33.54V78.43z M186.64,76.23h29.12v-3.61h-29.12V76.23z"></path><path id="Path_54" class="st0" d="M217.97,68.7h-33.54v-8.02h33.54V68.7z M186.64,66.5h29.12v-3.61h-29.12V66.5z"></path><path id="path5461" class="st0" d="M204.24,156.72c-1.32-0.02-2.34-0.06-2.36-0.09c-0.05-0.1-0.09-0.2-0.11-0.31 c-0.27-0.85-0.6-1.68-0.99-2.48c-2.3-5.26-7.58-8.58-13.32-8.39c-1.1-0.05-2.21,0.05-3.28,0.31c-2.37,0.54-4.58,1.63-6.46,3.17 c-1.18,1.04-2.22,2.23-3.1,3.53c-0.73,1.15-1.35,2.37-1.85,3.64l-0.18,0.5l-2.52-0.04l-2.52-0.04l-1.14-0.77 c-0.63-0.42-1.16-0.79-1.19-0.82c0.19-0.89,0.43-1.77,0.72-2.64c0.03-0.03,2.57-0.33,2.83-0.33c0.04,0,0.81-1.84,0.81-1.93 c-0.21-0.34-0.45-0.67-0.69-0.99c-0.38-0.51-0.76-1.03-0.85-1.14l-0.15-0.21l0.61-0.9c0.55-0.82,0.62-0.9,0.75-0.88 c0.08,0.01,0.83,0.15,1.67,0.3s1.55,0.28,1.58,0.28c0.39-0.46,0.74-0.95,1.05-1.46c0-0.03-0.2-0.63-0.44-1.35s-0.43-1.31-0.42-1.32 c0.15-0.13,1.9-1.46,1.93-1.46s0.64,0.38,1.38,0.86s1.36,0.86,1.38,0.86s0.37-0.18,0.77-0.41l0.73-0.41l0.01-0.4 c0-0.22,0.02-0.96,0.04-1.65l0.03-1.25l1.09-0.35l1.09-0.35l1.15,1.33c0.63,0.73,1.18,1.33,1.2,1.33c0.09,0,1.36-0.24,1.38-0.25 s0.24-0.76,0.52-1.67l0.5-1.65l0.35-0.04c0.19-0.02,0.7-0.04,1.13-0.06l0.78-0.02l0.31,0.71c0.17,0.39,0.5,1.15,0.73,1.69 l0.42,0.98l0.76,0.16c0.67,0.14,0.77,0.15,0.83,0.07c0.03-0.05,0.51-0.7,1.06-1.46l1-1.37l0.97,0.26c0.53,0.14,0.98,0.28,1,0.29 s0.11,0.77,0.22,1.68s0.2,1.73,0.22,1.82c0.03,0.16,0.1,0.21,0.78,0.57l0.75,0.39l1.23-0.95c0.67-0.52,1.24-0.95,1.25-0.95 s1.61,1.21,1.92,1.47c0.01,0.01-0.13,0.73-0.31,1.6s-0.34,1.62-0.33,1.68c0.16,0.24,0.35,0.46,0.57,0.65l0.57,0.56l1.49-0.53 c1.26-0.45,1.51-0.52,1.57-0.45c0.08,0.09,1.17,1.86,1.17,1.9c0,0.01-0.34,0.67-0.76,1.46s-0.76,1.47-0.76,1.51 c0.08,0.26,0.18,0.51,0.3,0.76l0.3,0.68l1.52,0.05l1.52,0.05l0.13,0.43c0.07,0.24,0.2,0.73,0.3,1.09l0.18,0.66l-1.2,1.26 c-0.66,0.69-1.22,1.26-1.24,1.26S205.52,156.74,204.24,156.72L204.24,156.72z"></path><path id="path3049" class="st0" d="M216.24,153.86c22.89-9.93,47.45-17.17,66.12-19.49c7.23-0.94,14.53-1.18,21.81-0.71 c2.34,0.22,7.83,1.04,8.42,1.27c0.69,1.21,1.26,2.49,1.72,3.81c2.3,5.86,5.73,14.98,5.73,15.23c0,0.13-0.49,0.01-1.08-0.25 c-5.11-2.23-12.19-3.71-22.32-4.66c-5.24-0.49-18.9-0.68-25.92-0.35c-16.9,0.87-33.75,2.71-50.44,5.51 c-3.81,0.62-7.05,1.13-7.19,1.13C214.09,154.78,215.15,154.28,216.24,153.86z"></path><path id="path3079" class="st0" d="M157.51,154.43c-22.89-9.93-47.45-17.17-66.12-19.49c-7.23-0.94-14.53-1.18-21.8-0.71 c-2.34,0.22-7.83,1.04-8.42,1.27c-0.69,1.21-1.26,2.49-1.72,3.81c-2.3,5.86-5.73,14.97-5.73,15.22c0,0.13,0.49,0.01,1.08-0.25 c5.11-2.23,12.19-3.71,22.32-4.66c5.24-0.49,18.9-0.68,25.92-0.35c16.9,0.87,33.75,2.71,50.44,5.51c3.81,0.62,7.05,1.13,7.19,1.12 C159.66,155.35,158.6,154.85,157.51,154.43z"></path><path id="path3058" class="st0" d="M210.46,144.93c14.03-13.29,35.92-25.13,57.33-31.01c10.07-2.72,20.4-4.42,30.81-5.07l1.92-0.07 l2.72,6.02c2.15,4.74,2.66,6.07,2.42,6.22c-0.93,0.17-1.88,0.24-2.83,0.2c-7.72,0.01-21.85,1.55-32.62,3.57 c-21.66,4.04-42.39,11.24-58.71,20.39c-1.37,0.77-2.55,1.39-2.63,1.39C209.36,145.97,209.89,145.42,210.46,144.93L210.46,144.93z"></path><path id="path3063" class="st0" d="M203.16,139.6c0-0.29,4.62-6.55,7.33-9.93c7.69-9.57,16.46-18.23,26.13-25.8 c2.98-2.32,10.04-7.05,13.13-8.8c8.71-5.04,18.19-8.62,28.07-10.6l2.15-0.41l2.1,2.2c1.15,1.21,3.8,4,5.88,6.2l3.78,4l-2.15,0.16 c-8.22,0.61-18.69,2.99-28.63,6.51c-20.58,7.54-39.41,19.21-55.33,34.29C204.85,138.21,204.03,138.94,203.16,139.6z"></path><path id="path3083" class="st0" d="M195.97,134.79c-0.02-1.19,2.17-7.89,3.81-11.69c9.08-20.94,26.88-41.16,52.57-59.7 c1.61-1.17,2.24-1.5,2.53-1.35c0.22,0.11,3.42,2.4,7.11,5.09l6.72,4.9l-5.14,2.57c-9.75,4.88-19.11,10.5-27.99,16.83 c-18.1,13.06-30.67,26.56-38.3,41.15C196.95,133.37,196.5,134.11,195.97,134.79L195.97,134.79z"></path></g></svg>